<?xml version="1.0" standalone="no"?>
<!DOCTYPE svg PUBLIC "-//W3C//DTD SVG 1.1//EN" "http://www.w3.org/Graphics/SVG/1.1/DTD/svg11.dtd" >
<svg xmlns="http://www.w3.org/2000/svg" xmlns:xlink="http://www.w3.org/1999/xlink" version="1.1">
<metadata>
Created by FontForge 20150318 at Wed Apr 22 21:14:17 2015
 By uniteet7
[c] Copyright 2000-2003, The Font Bureau, Inc. Designed by Cyrus Highsmith, Tobias Frere-Jones, and Font Bureau. All rights reserved.
</metadata>
<defs>
<font id="BentonSansMedium" horiz-adv-x="603" >
  <font-face 
    font-family="BentonSansMedium"
    font-weight="500"
    font-stretch="normal"
    units-per-em="1000"
    panose-1="2 0 6 3 4 0 0 2 0 4"
    ascent="800"
    descent="-200"
    x-height="531"
    cap-height="740"
    bbox="-92 -206 1432 959"
    underline-thickness="20"
    underline-position="-113"
    unicode-range="U+0020-FB02"
  />
<missing-glyph horiz-adv-x="500" 
 />
    <glyph glyph-name=".notdef" horiz-adv-x="500" 
 />
    <glyph glyph-name=".null" horiz-adv-x="0" 
 />
    <glyph glyph-name="nonmarkingreturn" horiz-adv-x="333" 
 />
    <glyph glyph-name="space" unicode=" " horiz-adv-x="251" 
 />
    <glyph glyph-name="exclam" unicode="!" horiz-adv-x="339" 
d="M128 221l-33 519h154l-33 -519h-88zM103 0v125h138v-125h-138z" />
    <glyph glyph-name="quotedbl" unicode="&#x22;" horiz-adv-x="437" 
d="M274 478l-17 196v66h109v-66l-17 -196h-75zM88 478l-17 196v66h109v-66l-17 -196h-75z" />
    <glyph glyph-name="numbersign" unicode="#" horiz-adv-x="740" 
d="M104 0l41 199h-112v93h132l32 156h-121v93h141l42 199h111l-41 -199h144l42 199h111l-42 -199h123v-93h-142l-33 -156h132v-93h-151l-42 -199h-111l41 199h-144l-42 -199h-111zM276 292h145l32 156h-144z" />
    <glyph glyph-name="dollar" unicode="$" horiz-adv-x="668" 
d="M294 -7q-162 15 -245 152l87 59q36 -51 72.5 -79.5t89.5 -36.5v246q-51 13 -85.5 26.5t-70.5 37t-54 60t-18 85.5q0 87 60.5 142.5t163.5 62.5v71h80v-73q135 -16 209 -129l-85 -66q-27 42 -55.5 65t-71.5 31v-222q56 -15 94 -30t74.5 -40t54.5 -62.5t18 -88.5
q0 -87 -61 -144.5t-177 -66.5v-86h-80v86zM298 651q-56 -4 -84 -30t-28 -67q0 -44 27.5 -68t84.5 -41v206zM371 87q125 12 125 106q0 48 -31 75t-94 46v-227z" />
    <glyph glyph-name="percent" unicode="%" horiz-adv-x="1052" 
d="M237 283q-87 0 -136.5 63.5t-49.5 169.5q0 108 50.5 172t136.5 64t135.5 -63.5t49.5 -170.5q0 -106 -49.5 -170.5t-136.5 -64.5zM251 0l442 740h108l-442 -740h-108zM815 -10q-87 0 -136.5 63.5t-49.5 169.5q0 108 50.5 171.5t136.5 63.5q85 0 135 -63t50 -170
q0 -106 -50 -170.5t-136 -64.5zM238 371q40 0 60.5 38.5t20.5 107.5q0 146 -82 146t-82 -145q0 -147 83 -147zM815 77q41 0 61.5 39t20.5 108q0 146 -82 146q-83 0 -83 -145q0 -148 83 -148z" />
    <glyph glyph-name="ampersand" unicode="&#x26;" horiz-adv-x="734" 
d="M282 -14q-119 0 -187.5 55t-68.5 142q0 79 45.5 131t125.5 92q-48 88 -48 166q0 76 50 129t144 53q87 0 132 -44t45 -110q0 -73 -46.5 -122.5t-130.5 -91.5q23 -33 54 -72q56 -70 100 -115q46 70 60 177h109q-20 -140 -86 -237q69 -46 142 -46v-103q-128 3 -219 65
q-90 -69 -221 -69zM301 454q56 31 84.5 61t28.5 75q0 29 -18.5 49t-50.5 20q-81 0 -81 -80q0 -58 37 -125zM293 86q78 0 128 33q-47 44 -117 132q-39 49 -61 81q-92 -59 -92 -133q0 -113 142 -113z" />
    <glyph glyph-name="quotesingle" unicode="'" horiz-adv-x="251" 
d="M88 478l-17 196v66h109v-66l-17 -196h-75z" />
    <glyph glyph-name="parenleft" unicode="(" horiz-adv-x="401" 
d="M305 -205q-126 106 -189.5 224t-63.5 261q0 144 63.5 261.5t189.5 223.5l57 -61q-180 -182 -180 -424q0 -245 183 -428z" />
    <glyph glyph-name="parenright" unicode=")" horiz-adv-x="401" 
d="M96 -205l-60 57q183 183 183 428q0 242 -180 424l57 61q126 -106 189.5 -223.5t63.5 -261.5q0 -143 -63.5 -261t-189.5 -224z" />
    <glyph glyph-name="asterisk" unicode="*" horiz-adv-x="508" 
d="M180 323l-71 41l98 142l-172 -12v78l173 -12l-99 142l71 42l74 -157l74 157l71 -42l-98 -142l172 12v-78l-172 12l98 -142l-70 -41l-75 156z" />
    <glyph glyph-name="plus" unicode="+" horiz-adv-x="642" 
d="M270 82v210h-203v99h203v210h102v-210h204v-99h-204v-210h-102z" />
    <glyph glyph-name="comma" unicode="," horiz-adv-x="276" 
d="M87 -112l35 112h-53v130h138v-113l-63 -129h-57z" />
    <glyph glyph-name="hyphen" unicode="-" horiz-adv-x="357" 
d="M55 270v88h247v-88h-247z" />
    <glyph glyph-name="period" unicode="." horiz-adv-x="276" 
d="M69 0v130h138v-130h-138z" />
    <glyph glyph-name="slash" unicode="/" 
d="M23 0l430 740h127l-430 -740h-127z" />
    <glyph glyph-name="zero" unicode="0" horiz-adv-x="678" 
d="M340 -14q-138 0 -216 104.5t-78 279.5t78 279.5t216 104.5t215 -104t77 -280t-77 -280t-215 -104zM340 96q167 0 167 274q0 136 -43.5 204t-123.5 68q-169 0 -169 -272q0 -136 44.5 -205t124.5 -69z" />
    <glyph glyph-name="one" unicode="1" horiz-adv-x="448" 
d="M43 0v110h136v503q-64 -34 -134 -34v113q90 3 138 48h118v-630h121v-110h-379z" />
    <glyph glyph-name="two" unicode="2" 
d="M35 0v16q0 91 48.5 169.5t183.5 165.5q93 60 125.5 95t32.5 89q0 51 -31.5 79t-84.5 28q-101 0 -174 -109l-93 64q102 157 273 157q108 0 170 -57.5t62 -152.5q0 -72 -37 -128t-138 -120q-172 -109 -191 -186h370v-110h-516z" />
    <glyph glyph-name="three" unicode="3" horiz-adv-x="610" 
d="M293 -14q-179 0 -275 130l87 70q69 -90 186 -90q71 0 110.5 28.5t39.5 85.5q0 68 -50 98t-156 30h-34v102h37q103 0 143 27.5t40 80.5q0 93 -127 93q-102 0 -171 -71l-73 78q47 49 114 77t142 28q116 0 177 -51t61 -136q0 -66 -35.5 -111t-100.5 -62q157 -32 157 -188
q0 -100 -74 -159.5t-198 -59.5z" />
    <glyph glyph-name="four" unicode="4" horiz-adv-x="647" 
d="M384 0v152h-360v98l337 490h144v-480h125v-108h-125v-152h-121zM159 260h225v331h-2z" />
    <glyph glyph-name="five" unicode="5" horiz-adv-x="598" 
d="M289 -14q-166 0 -266 112l77 82q89 -84 183 -84q79 0 119 40.5t40 108.5q0 72 -38.5 108.5t-106.5 36.5q-95 0 -150 -71l-83 27l29 394h426l-9 -110h-320l-15 -191q51 55 155 55q110 0 173 -67t63 -178q0 -117 -75 -190t-202 -73z" />
    <glyph glyph-name="six" unicode="6" horiz-adv-x="636" 
d="M332 -14q-131 0 -208.5 95t-77.5 276q0 188 91.5 292.5t228.5 104.5q114 0 191 -60l-60 -92q-61 43 -136 43q-84 0 -135.5 -68.5t-56.5 -185.5q89 80 195 80q108 0 172 -60.5t64 -172.5q0 -110 -78 -181t-190 -71zM338 92q67 0 105 38t38 104q0 133 -140 133
q-50 0 -98 -21.5t-73 -51.5q14 -202 168 -202z" />
    <glyph glyph-name="seven" unicode="7" horiz-adv-x="543" 
d="M96 0l295 630h-364v110h493v-102l-296 -638h-128z" />
    <glyph glyph-name="eight" unicode="8" horiz-adv-x="625" 
d="M313 -17q-132 0 -208 56t-76 147q0 127 177 203q-73 35 -108 75.5t-35 105.5q0 75 67 131t183 56q118 0 183.5 -55.5t65.5 -131.5q0 -114 -143 -178q90 -39 133.5 -84t43.5 -122q0 -90 -76 -146.5t-207 -56.5zM321 435q65 30 92.5 57.5t27.5 68.5q0 39 -32 66.5t-96 27.5
q-63 0 -96 -26.5t-33 -65.5q0 -43 32 -70.5t105 -57.5zM313 84q72 0 115 29t43 80q0 48 -39 81t-128 69q-78 -36 -114 -70t-36 -80q0 -50 43 -79.5t116 -29.5z" />
    <glyph glyph-name="nine" unicode="9" horiz-adv-x="636" 
d="M270 -14q-114 0 -191 60l60 92q64 -45 136 -45q84 0 135.5 69.5t56.5 186.5q-89 -80 -195 -80q-108 0 -172 60.5t-64 172.5q0 110 78 181t190 71q131 0 208.5 -95t77.5 -276q0 -188 -91.5 -292.5t-228.5 -104.5zM295 373q50 0 98 21.5t73 51.5q-14 200 -168 200
q-67 0 -105 -37t-38 -103q0 -133 140 -133z" />
    <glyph glyph-name="colon" unicode=":" horiz-adv-x="285" 
d="M74 400v131h137v-131h-137zM74 0v130h137v-130h-137z" />
    <glyph glyph-name="semicolon" unicode=";" horiz-adv-x="285" 
d="M74 400v131h137v-131h-137zM90 -112l35 112h-51v130h137v-111l-64 -131h-57z" />
    <glyph glyph-name="less" unicode="&#x3c;" horiz-adv-x="642" 
d="M586 58l-529 230v72l529 230v-104l-395 -162l395 -162v-104z" />
    <glyph glyph-name="equal" unicode="=" horiz-adv-x="642" 
d="M68 395v91h505v-91h-505zM68 167v91h505v-91h-505z" />
    <glyph glyph-name="greater" unicode="&#x3e;" horiz-adv-x="642" 
d="M60 58v104l395 162l-395 162v104l529 -230v-72z" />
    <glyph glyph-name="question" unicode="?" horiz-adv-x="572" 
d="M212 219q-3 24 -3 70q0 101 98 156q55 32 75 54.5t20 63.5q0 38 -30.5 59.5t-84.5 21.5q-51 0 -97 -25t-77 -61l-79 71q104 125 264 125q109 0 168 -50t59 -132q0 -65 -31.5 -105t-90.5 -72q-63 -34 -76.5 -63.5t-13.5 -112.5h-101zM194 0v125h137v-125h-137z" />
    <glyph glyph-name="at" unicode="@" horiz-adv-x="868" 
d="M428 -14q-172 0 -277.5 107t-105.5 276q0 168 109.5 276.5t280.5 108.5t279.5 -104.5t108.5 -269.5q0 -103 -50 -164.5t-135 -61.5q-105 0 -128 75q-66 -66 -160 -66q-64 0 -102 40.5t-38 115.5q0 118 57 193.5t142 75.5q74 0 121 -52l7 44h96l-47 -297q-11 -73 65 -73
q50 0 81.5 43.5t31.5 123.5q0 142 -91.5 231t-237.5 89t-237 -91.5t-91 -236.5q0 -146 89.5 -238t234.5 -92q110 0 195 52l27 -43q-95 -62 -225 -62zM385 238q55 0 106 49l28 177q-38 44 -94 44q-53 0 -85.5 -53t-32.5 -126q0 -91 78 -91z" />
    <glyph glyph-name="A" unicode="A" horiz-adv-x="697" 
d="M25 0l262 743h123l262 -743h-128l-60 176h-281l-61 -176h-117zM241 286h206l-101 300h-2z" />
    <glyph glyph-name="B" unicode="B" horiz-adv-x="702" 
d="M84 0v740h280q258 0 258 -184q0 -74 -35.5 -116t-95.5 -54v-2q153 -29 153 -181q0 -99 -72 -151t-190 -52h-298zM207 431h145q150 0 150 101q0 53 -35 75.5t-113 22.5h-147v-199zM207 108h162q79 0 115.5 26t36.5 82q0 109 -165 109h-149v-217z" />
    <glyph glyph-name="C" unicode="C" horiz-adv-x="717" 
d="M373 -14q-147 0 -236 100t-89 286q0 181 90.5 281.5t234.5 100.5q231 0 287 -230l-119 -34q-22 77 -60 112.5t-109 35.5q-94 0 -146 -69.5t-52 -195.5q0 -131 53 -202t147 -71q72 0 114.5 38t63.5 121l119 -27q-60 -246 -298 -246z" />
    <glyph glyph-name="D" unicode="D" horiz-adv-x="728" 
d="M84 0v740h211q182 0 283 -89.5t101 -277.5q0 -191 -102 -282t-282 -91h-211zM209 112h97q128 0 188 61t60 200q0 132 -60.5 191.5t-189.5 59.5h-95v-512z" />
    <glyph glyph-name="E" unicode="E" horiz-adv-x="621" 
d="M84 0v740h478v-116h-353v-184h259v-111h-259v-215h373v-114h-498z" />
    <glyph glyph-name="F" unicode="F" horiz-adv-x="578" 
d="M84 0v740h466v-116h-341v-198h247v-111h-247v-315h-125z" />
    <glyph glyph-name="G" unicode="G" horiz-adv-x="745" 
d="M364 -14q-154 0 -235 105.5t-81 281.5q0 177 88.5 279t237.5 102q226 0 287 -233l-116 -31q-24 81 -64 114.5t-108 33.5q-36 0 -68.5 -12.5t-63.5 -40t-49 -81.5t-18 -128q0 -144 58 -211t146 -67q75 0 121 43.5t52 123.5h-149v101h269v-366h-103v107h-2
q-21 -48 -72.5 -84.5t-129.5 -36.5z" />
    <glyph glyph-name="H" unicode="H" horiz-adv-x="754" 
d="M84 0v740h125v-295h336v295h125v-740h-125v329h-336v-329h-125z" />
    <glyph glyph-name="I" unicode="I" horiz-adv-x="310" 
d="M92 0v740h126v-740h-126z" />
    <glyph glyph-name="J" unicode="J" horiz-adv-x="520" 
d="M219 -14q-121 0 -201 85l78 77q53 -53 115 -53q55 0 83 28t28 99v518h125v-535q0 -104 -59.5 -161.5t-168.5 -57.5z" />
    <glyph glyph-name="K" unicode="K" horiz-adv-x="698" 
d="M84 0v740h125v-344l291 344h148l-252 -285l283 -455h-143l-222 359l-105 -116v-243h-125z" />
    <glyph glyph-name="L" unicode="L" horiz-adv-x="578" 
d="M84 0v740h125v-626h341v-114h-466z" />
    <glyph glyph-name="M" unicode="M" horiz-adv-x="893" 
d="M84 0v740h165l198 -587h2l192 587h168v-740h-121v552h-2q-10 -48 -44 -151l-144 -401h-111l-143 401q-29 86 -45 156h-2v-557h-113z" />
    <glyph glyph-name="N" unicode="N" horiz-adv-x="763" 
d="M84 0v740h127l350 -528h2v528h116v-740h-114l-363 539h-2v-539h-116z" />
    <glyph glyph-name="O" unicode="O" horiz-adv-x="764" 
d="M383 -14q-146 0 -240.5 101.5t-94.5 282.5t94.5 282.5t240.5 101.5t239.5 -101.5t93.5 -282.5t-93.5 -282.5t-239.5 -101.5zM383 99q95 0 151 71.5t56 199.5t-56 198.5t-151 70.5q-96 0 -152.5 -70.5t-56.5 -198.5q0 -129 56.5 -200t152.5 -71z" />
    <glyph glyph-name="P" unicode="P" horiz-adv-x="663" 
d="M84 0v740h259q285 0 285 -227q0 -65 -23 -111.5t-65 -72t-91.5 -37t-109.5 -11.5h-131v-281h-124zM208 390h137q83 0 121.5 28t38.5 91q0 61 -38.5 89t-122.5 28h-136v-236z" />
    <glyph glyph-name="Q" unicode="Q" horiz-adv-x="764" 
d="M545 -193q-113 0 -172.5 51.5t-61.5 136.5q-117 21 -190.5 120t-73.5 255q0 179 97 281.5t238 102.5t237 -102.5t96 -281.5q0 -160 -77.5 -260t-199.5 -118q10 -50 45.5 -64.5t112.5 -14.5h51v-106h-102zM382 97q94 0 150.5 72t56.5 201q0 128 -56 198.5t-151 70.5
q-96 0 -152.5 -70.5t-56.5 -198.5q0 -129 56.5 -201t152.5 -72z" />
    <glyph glyph-name="R" unicode="R" horiz-adv-x="691" 
d="M84 0v740h265q134 0 206 -55.5t72 -166.5q0 -170 -164 -210l174 -308h-134l-166 292h-130v-292h-123zM207 401h137q82 0 121 25.5t39 88.5q0 62 -39 86.5t-122 24.5h-136v-225z" />
    <glyph glyph-name="S" unicode="S" horiz-adv-x="674" 
d="M343 -14q-107 0 -184.5 50.5t-113.5 137.5l99 52q65 -129 204 -129q70 0 110.5 23.5t40.5 72.5q0 47 -37 74.5t-131 55.5q-37 11 -60 18.5t-53.5 19.5t-49 23t-38.5 27.5t-31 35t-18.5 43.5t-7.5 55q0 94 70 151.5t183 57.5q195 0 277 -159l-91 -63q-64 108 -187 108
q-62 0 -95.5 -22t-33.5 -62q0 -49 37.5 -74t136.5 -54q61 -18 100 -34t77 -41.5t56.5 -63t18.5 -87.5q0 -94 -75 -155t-204 -61z" />
    <glyph glyph-name="T" unicode="T" horiz-adv-x="635" 
d="M255 0v624h-228v116h581v-116h-228v-624h-125z" />
    <glyph glyph-name="U" unicode="U" horiz-adv-x="721" 
d="M361 -12q-147 0 -217 75t-70 207v470h125v-459q0 -180 163 -180q162 0 162 179v460h123v-469q0 -130 -73.5 -206.5t-212.5 -76.5z" />
    <glyph glyph-name="V" unicode="V" horiz-adv-x="682" 
d="M282 -3l-257 743h127l191 -577h2l194 577h118l-257 -743h-118z" />
    <glyph glyph-name="W" unicode="W" horiz-adv-x="944" 
d="M226 0l-197 740h126l94 -383q29 -114 39 -172h2q12 69 38 171l89 384h120l92 -386q30 -118 39 -169h2q3 18 36 166l92 389h117l-195 -740h-109l-133 567h-2l-140 -567h-110z" />
    <glyph glyph-name="X" unicode="X" horiz-adv-x="697" 
d="M32 0l246 393l-220 347h143l154 -248l149 248h130l-216 -347l247 -393h-138l-183 293l-181 -293h-131z" />
    <glyph glyph-name="Y" unicode="Y" horiz-adv-x="661" 
d="M267 0v319l-252 421h132l185 -315l184 315h130l-253 -421v-319h-126z" />
    <glyph glyph-name="Z" unicode="Z" horiz-adv-x="645" 
d="M35 0v87l409 548h-382v105h539v-90l-404 -548h404v-102h-566z" />
    <glyph glyph-name="bracketleft" unicode="[" horiz-adv-x="421" 
d="M77 -200v940h308v-88h-184v-764h184v-88h-308z" />
    <glyph glyph-name="backslash" unicode="\" horiz-adv-x="583" 
d="M443 0l-430 740h127l430 -740h-127z" />
    <glyph glyph-name="bracketright" unicode="]" horiz-adv-x="421" 
d="M36 -200v88h184v763h-184v89h308v-940h-308z" />
    <glyph glyph-name="asciicircum" unicode="^" horiz-adv-x="535" 
d="M96 587l129 166h85l129 -166h-72l-100 84l-100 -84h-71z" />
    <glyph glyph-name="underscore" unicode="_" horiz-adv-x="500" 
d="M0 -145v89h500v-89h-500z" />
    <glyph glyph-name="grave" unicode="`" horiz-adv-x="500" 
d="M262 587l-145 166h133l94 -166h-82z" />
    <glyph glyph-name="a" unicode="a" horiz-adv-x="565" 
d="M185 -8q-67 0 -108.5 36t-41.5 100q0 89 82.5 144.5t263.5 75.5v16q0 76 -87 76q-89 0 -179 -72l-60 77q105 96 256 96q103 0 147 -47.5t44 -144.5v-219q0 -93 15 -130h-124q-12 38 -12 68q-75 -76 -196 -76zM230 87q87 0 151 61v117q-225 -31 -225 -114q0 -31 20 -47.5
t54 -16.5z" />
    <glyph glyph-name="b" unicode="b" horiz-adv-x="611" 
d="M344 -8q-93 0 -152 67v-59h-123v740h123v-279q67 80 169 80q94 0 152 -70.5t58 -204.5t-61 -204t-166 -70zM317 90q69 0 100 42.5t31 132.5q0 83 -33.5 127t-93.5 44q-73 0 -129 -67v-213q51 -66 125 -66z" />
    <glyph glyph-name="c" unicode="c" horiz-adv-x="545" 
d="M287 -11q-102 0 -175 70t-73 206q0 73 23 128.5t61 86.5t81 46t90 15q91 0 141.5 -42t78.5 -113l-104 -37q-31 89 -118 89q-57 0 -93 -41.5t-36 -131.5q0 -84 33 -129.5t94 -45.5q45 0 74 19.5t50 72.5l102 -37q-70 -156 -229 -156z" />
    <glyph glyph-name="d" unicode="d" horiz-adv-x="611" 
d="M250 -8q-95 0 -152.5 69.5t-57.5 202.5q0 135 61 206t166 71q93 0 152 -67v266h123v-610q0 -94 16 -130h-127q-12 26 -12 72q-69 -80 -169 -80zM290 93q73 0 129 67v213q-51 66 -125 66q-69 0 -100 -44t-31 -134q0 -83 33.5 -125.5t93.5 -42.5z" />
    <glyph glyph-name="e" unicode="e" horiz-adv-x="564" 
d="M295 -11q-109 0 -182.5 69t-73.5 207q0 72 23.5 127.5t62 86.5t81 46.5t86.5 15.5q101 0 167 -68.5t66 -218.5v-29h-363q4 -69 42 -103.5t100 -34.5q49 0 83 15t66 47l65 -64q-87 -96 -223 -96zM164 317h248q-11 124 -121 124q-49 0 -84 -30t-43 -94z" />
    <glyph glyph-name="f" unicode="f" horiz-adv-x="374" 
d="M115 0v433h-92v98h92v54q0 74 38.5 116t133.5 42q28 0 73 -5v-95q-16 4 -42 4q-38 0 -59 -15t-21 -54v-47h116v-98h-116v-433h-123z" />
    <glyph glyph-name="g" unicode="g" horiz-adv-x="587" 
d="M269 -206q-256 0 -256 130q0 78 87 112q-41 21 -41 65q0 54 72 97q-84 53 -84 153q0 83 60.5 136.5t162.5 53.5q100 0 163 -56q57 45 132 52v-100q-48 0 -93 -14q19 -30 19 -72q0 -85 -59.5 -137t-161.5 -52q-33 0 -74 11q-27 -15 -27 -34q0 -16 13 -22.5t48 -9.5l94 -6
q117 -7 168 -41t51 -104q0 -80 -73.5 -121t-200.5 -41zM272 247q51 0 79 26t28 74q0 50 -28 76t-80 26q-51 0 -79.5 -26.5t-28.5 -75.5q0 -48 28.5 -74t80.5 -26zM288 -117q67 0 106.5 16.5t39.5 45.5t-27.5 41.5t-107.5 17.5l-92 6q-15 0 -32 3q-49 -22 -49 -68
q0 -34 39 -48t123 -14z" />
    <glyph glyph-name="h" unicode="h" 
d="M69 0v740h124v-281q77 82 194 82q71 0 112 -41.5t41 -118.5v-381h-124v350q0 86 -79 86q-68 0 -144 -69v-367h-124z" />
    <glyph glyph-name="i" unicode="i" horiz-adv-x="272" 
d="M73 623v107h126v-107h-126zM74 0v531h124v-531h-124z" />
    <glyph glyph-name="j" unicode="j" horiz-adv-x="272" 
d="M73 623v107h126v-107h-126zM50 -202q-51 0 -75 6v86q18 -4 40 -4q59 0 59 67v578h124v-597q0 -63 -31.5 -99.5t-116.5 -36.5z" />
    <glyph glyph-name="k" unicode="k" horiz-adv-x="563" 
d="M69 0v740h123v-441l201 232h135l-173 -194l188 -337h-129l-137 246l-85 -93v-153h-123z" />
    <glyph glyph-name="l" unicode="l" horiz-adv-x="272" 
d="M74 0v740h124v-740h-124z" />
    <glyph glyph-name="m" unicode="m" horiz-adv-x="924" 
d="M69 0v531h123v-73q76 83 182 83q63 0 95.5 -22t49.5 -65q79 87 186 87q78 0 116.5 -43t38.5 -117v-381h-123v350q0 46 -16.5 66t-58.5 20q-59 0 -136 -69v-367h-123v350q0 46 -16.5 66t-58.5 20q-59 0 -136 -69v-367h-123z" />
    <glyph glyph-name="n" unicode="n" 
d="M69 0v531h124v-72q77 82 194 82q71 0 112 -41.5t41 -118.5v-381h-124v350q0 86 -79 86q-68 0 -144 -69v-367h-124z" />
    <glyph glyph-name="o" unicode="o" horiz-adv-x="596" 
d="M298 -11q-107 0 -183 70t-76 206q0 137 75.5 206.5t183.5 69.5q107 0 183 -69.5t76 -206.5q0 -136 -76 -206t-183 -70zM298 92q66 0 100.5 45t34.5 128q0 78 -34 124.5t-101 46.5q-66 0 -100.5 -45t-34.5 -126q0 -79 33.5 -126t101.5 -47z" />
    <glyph glyph-name="p" unicode="p" horiz-adv-x="611" 
d="M69 -200v731h123v-70q67 80 169 80q94 0 152 -70.5t58 -204.5t-61 -204t-166 -70q-93 0 -152 67v-259h-123zM317 90q69 0 100 42.5t31 132.5q0 83 -33.5 127t-93.5 44q-73 0 -129 -67v-213q51 -66 125 -66z" />
    <glyph glyph-name="q" unicode="q" horiz-adv-x="611" 
d="M419 -200v272q-69 -80 -169 -80q-95 0 -152.5 69.5t-57.5 202.5q0 135 61 206t166 71q93 0 152 -67v57h123v-731h-123zM290 93q73 0 129 67v213q-51 66 -125 66q-69 0 -100 -44t-31 -134q0 -83 33.5 -125.5t93.5 -42.5z" />
    <glyph glyph-name="r" unicode="r" horiz-adv-x="412" 
d="M69 0v531h123v-87h2q60 97 191 97h8l-4 -113q-12 2 -33 2q-106 0 -164 -94v-336h-123z" />
    <glyph glyph-name="s" unicode="s" horiz-adv-x="523" 
d="M263 -11q-72 0 -134.5 23t-99.5 61l67 75q74 -63 167 -63q106 0 106 61q0 15 -8.5 26.5t-28 20t-35 13t-46.5 11.5q-32 7 -47.5 11.5t-44 14t-43.5 20.5t-32.5 28t-25 40.5t-7.5 53.5q0 70 54.5 113t142.5 43q128 0 218 -75l-59 -80q-30 25 -72.5 41.5t-77.5 16.5
q-90 0 -90 -54q0 -29 28.5 -43t87.5 -27q38 -8 57 -13t52 -18.5t49.5 -29t30 -43t13.5 -63.5q0 -80 -62.5 -122t-159.5 -42z" />
    <glyph glyph-name="t" unicode="t" horiz-adv-x="403" 
d="M275 -7q-96 0 -130 34.5t-34 111.5v294h-92v98h92v185h123v-185h137v-98h-137v-263q0 -44 16.5 -62t61.5 -18q32 0 53 7v-97q-30 -7 -90 -7z" />
    <glyph glyph-name="u" unicode="u" 
d="M216 -10q-71 0 -112 41.5t-41 118.5v381h124v-352q0 -86 79 -86q68 0 144 69v369h124v-531h-124v72q-77 -82 -194 -82z" />
    <glyph glyph-name="v" unicode="v" horiz-adv-x="527" 
d="M201 -1l-192 532h129l130 -392h2l129 392h119l-192 -532h-125z" />
    <glyph glyph-name="w" unicode="w" horiz-adv-x="763" 
d="M170 0l-158 531h125l58 -220q23 -86 40 -169h2q22 100 42 171l56 218h100l59 -222q18 -62 41 -167h2q24 104 42 165l60 224h112l-158 -531h-115l-96 369h-2l-96 -369h-114z" />
    <glyph glyph-name="x" unicode="x" horiz-adv-x="533" 
d="M19 0l185 274l-172 257h131l111 -170l107 170h127l-174 -257l184 -274h-131l-122 186l-120 -186h-126z" />
    <glyph glyph-name="y" unicode="y" horiz-adv-x="547" 
d="M125 -206q-67 0 -126 16l28 99q41 -11 90 -11q33 0 52 14t32 46l15 39l-204 534h128l137 -387h2l136 387h122l-226 -589q-28 -75 -69.5 -111.5t-116.5 -36.5z" />
    <glyph glyph-name="z" unicode="z" horiz-adv-x="520" 
d="M34 0v71l283 362h-262v98h416v-74l-284 -362h301v-95h-454z" />
    <glyph glyph-name="braceleft" unicode="{" horiz-adv-x="416" 
d="M277 -200q-67 0 -102 38t-35 105v163q0 70 -25.5 95t-85.5 25v88q60 0 85.5 25t25.5 95v163q0 67 35 105t102 38h109v-88h-44q-78 0 -78 -78v-154q0 -70 -20.5 -102t-64.5 -47v-2q44 -15 64.5 -47t20.5 -102v-154q0 -78 78 -78h44v-88h-109z" />
    <glyph glyph-name="bar" unicode="|" horiz-adv-x="377" 
d="M128 -200v940h121v-940h-121z" />
    <glyph glyph-name="braceright" unicode="}" horiz-adv-x="416" 
d="M30 -200v88h44q78 0 78 78v164q0 68 20 96t65 43v2q-45 15 -65 43t-20 96v164q0 80 -76 80h-44l-2 86h119q67 0 97 -33t30 -100v-173q0 -70 25.5 -95t85.5 -25v-88q-60 0 -85.5 -25t-25.5 -95v-173q0 -67 -30 -100t-97 -33h-119z" />
    <glyph glyph-name="asciitilde" unicode="~" horiz-adv-x="515" 
d="M333 390q-36 0 -81.5 28t-63.5 28q-41 0 -41 -54h-70q0 139 105 139q36 0 81.5 -28t64.5 -28q41 0 41 54h69q0 -139 -105 -139z" />
    <glyph glyph-name="nbspace" unicode="&#xa0;" horiz-adv-x="125" 
 />
    <glyph glyph-name="exclamdown" unicode="&#xa1;" horiz-adv-x="339" 
d="M98 615v125h138v-125h-138zM90 0l33 519h88l33 -519h-154z" />
    <glyph glyph-name="cent" unicode="&#xa2;" horiz-adv-x="549" 
d="M170 17q-59 32 -95 94.5t-36 153.5q0 71 23 126t60.5 86.5t81.5 47.5t90 16q18 0 26 -1l28 98h68l-32 -111q88 -31 132 -141l-99 -37q-21 61 -65 80l-96 -338q13 -4 34 -4q92 0 131 95l97 -37q-70 -156 -231 -156q-27 0 -56 6l-35 -124h-69zM294 440h-2
q-59 0 -98.5 -41.5t-39.5 -133.5q0 -101 48 -147z" />
    <glyph glyph-name="sterling" unicode="&#xa3;" horiz-adv-x="657" 
d="M226 337h-137v82h90q-43 75 -43 137q0 86 57.5 142t153.5 56q192 0 224 -193l-111 -21q-14 111 -110 111q-45 0 -69.5 -26t-24.5 -68q0 -17 3.5 -33.5t13.5 -38t14 -30t20 -36.5h175v-82h-136q21 -53 21 -113q0 -56 -20 -104q54 -34 94 -34q48 0 66 24t20 86h109
q0 -94 -41 -152t-135 -58q-84 0 -162 61q-61 -61 -154 -61q-50 0 -87 28.5t-37 81.5q0 57 36.5 90t94.5 33q49 0 108 -36q1 10 1 31q0 57 -34 123zM234 102q-50 43 -82 43q-23 0 -36.5 -12.5t-13.5 -33.5q0 -20 13.5 -32.5t35.5 -12.5q54 0 83 48z" />
    <glyph glyph-name="currency" unicode="&#xa4;" horiz-adv-x="729" 
d="M131 400h-110v83h119q24 134 100.5 202.5t182.5 68.5q105 0 165 -53t89 -152l-108 -37q-22 72 -52 103t-93 31t-105 -41t-58 -122h186v-83h-195v-26q0 -29 1 -43h194v-84h-184q32 -155 163 -155q59 0 94 34t56 111l110 -33q-63 -218 -261 -218q-108 0 -183 65.5
t-100 195.5h-121v84h111q-1 13 -1 41v28z" />
    <glyph glyph-name="yen" unicode="&#xa5;" horiz-adv-x="656" 
d="M265 0v97h-184v83h184v70h-184v83h181l-243 407h131l179 -305l179 305h129l-245 -407h184v-83h-186v-70h186v-83h-186v-97h-125z" />
    <glyph glyph-name="brokenbar" unicode="&#xa6;" horiz-adv-x="377" 
d="M128 331v409h121v-409h-121zM128 -200v409h121v-409h-121z" />
    <glyph glyph-name="section" unicode="&#xa7;" horiz-adv-x="561" 
d="M280 -200q-173 0 -214 143l92 38q14 -45 41 -67t76 -22q85 0 85 69q0 32 -28 58.5t-96 64.5q-49 29 -75 46t-55 42.5t-41 53.5t-12 63q0 97 109 159q-43 34 -61 65.5t-18 73.5q0 70 54 118.5t144 48.5q177 0 218 -143l-97 -41q-14 43 -44 69t-72 26q-46 0 -68 -20.5
t-22 -51.5t29.5 -57.5t98.5 -65.5q96 -54 139.5 -96.5t43.5 -108.5q0 -53 -31.5 -93.5t-76.5 -66.5q42 -33 58 -64t16 -74q0 -70 -51.5 -118.5t-141.5 -48.5zM332 151q72 38 72 91q0 38 -27 64.5t-117 79.5q-22 12 -32 17q-71 -38 -71 -91q0 -38 27 -64.5t117 -79.5
q22 -12 31 -17z" />
    <glyph glyph-name="dieresis" unicode="&#xa8;" horiz-adv-x="520" 
d="M301 584v121h113v-121h-113zM104 584v121h112v-121h-112z" />
    <glyph glyph-name="copyright" unicode="&#xa9;" horiz-adv-x="865" 
d="M432 -14q-162 0 -272 110.5t-110 272.5t111 273.5t273 111.5q161 0 271 -111t110 -272t-111 -273t-272 -112zM434 44q135 0 226.5 93.5t91.5 231.5t-92.5 232.5t-227.5 94.5q-136 0 -227.5 -93.5t-91.5 -231.5t92.5 -232.5t228.5 -94.5zM430 155q-80 0 -128.5 58.5
t-48.5 160.5q0 100 48.5 158.5t130.5 58.5q130 0 161 -133l-72 -19q-12 42 -32 63t-56 21q-46 0 -73 -40.5t-27 -108.5q0 -70 26.5 -109.5t73.5 -39.5q70 0 91 90q71 -19 74 -19q-38 -141 -168 -141z" />
    <glyph glyph-name="ordfeminine" unicode="&#xaa;" horiz-adv-x="434" 
d="M152 364q-48 0 -78 25.5t-30 70.5q0 63 58 101t184 52v12q0 55 -58 55q-69 0 -127 -50l-43 51q73 69 182 69q135 0 135 -135v-152q0 -64 12 -92h-92q-8 24 -9 52q-59 -59 -134 -59zM183 434q56 0 103 43v84q-153 -19 -153 -85q0 -42 50 -42z" />
    <glyph glyph-name="guillemotleft" unicode="&#xab;" horiz-adv-x="588" 
d="M427 0l-160 266l160 265h119l-154 -265l154 -266h-119zM191 0l-159 266l159 265h120l-153 -265l153 -266h-120z" />
    <glyph glyph-name="logicalnot" unicode="&#xac;" horiz-adv-x="760" 
d="M161 151l-22 -2v94l29 -2l6 83l-164 -20v130l164 -20l-7 85l-28 -2v94l21 -2l-1 21h94l-2 -28l84 -6l-20 164h130l-20 -164l84 6l-2 28h94l-2 -21l22 2v-94l-29 2l-6 -85l164 20v-130l-164 20l6 -83l29 2v-94l-22 2l2 -23h-94l2 30l-84 6l20 -164h-130l20 164l-84 -6
l2 -30h-94zM425 511v-97h96l-7 91zM335 414v97l-90 -6l-6 -91h96zM425 324v-95l90 6l6 89h-96zM245 235l90 -6v95h-96z" />
    <glyph glyph-name="registered" unicode="&#xae;" horiz-adv-x="865" 
d="M432 -14q-162 0 -272 110.5t-110 272.5t111 273.5t273 111.5q161 0 271 -111t110 -272t-111 -273t-272 -112zM434 44q135 0 226.5 93.5t91.5 231.5t-92.5 232.5t-227.5 94.5q-136 0 -227.5 -93.5t-91.5 -231.5t92.5 -232.5t228.5 -94.5zM286 168v419h155q75 0 116 -32.5
t41 -95.5q0 -90 -85 -118l91 -173h-85l-84 163h-70v-163h-79zM365 391h72q83 0 83 64q0 62 -84 62h-71v-126z" />
    <glyph glyph-name="macron" unicode="&#xaf;" horiz-adv-x="500" 
d="M94 613v91h312v-91h-312z" />
    <glyph glyph-name="degree" unicode="&#xb0;" horiz-adv-x="410" 
d="M205 449q-66 0 -110 43t-44 109t44 109t110 43t110 -42.5t44 -108.5t-44 -109.5t-110 -43.5zM205 513q36 0 59 24.5t23 63.5t-23 63.5t-59 24.5t-59 -24.5t-23 -63.5t23 -63.5t59 -24.5z" />
    <glyph glyph-name="plusminus" unicode="&#xb1;" horiz-adv-x="929" 
d="M115 0v433h-92v98h92v54q0 72 37.5 115t121.5 43q24 0 69 -5v-95q-14 3 -37 3q-68 0 -68 -69v-46h187v48q0 73 38 118.5t121 45.5q23 0 68 -5v-95q-12 3 -37 3q-67 0 -67 -69v-46h103v-98h-103v-433h-123v433h-187v-433h-123zM734 0v740h123v-740h-123z" />
    <glyph glyph-name="twosuperior" unicode="&#xb2;" horiz-adv-x="465" 
d="M60 270v23q0 58 30 107.5t116 104.5q52 34 71 54t19 49q0 26 -16 41t-44 15q-61 0 -102 -75l-72 48q65 113 178 113q73 0 114.5 -38t41.5 -102q0 -46 -26.5 -84t-92.5 -77q-87 -51 -99 -96h220v-83h-338z" />
    <glyph glyph-name="threesuperior" unicode="&#xb3;" horiz-adv-x="465" 
d="M230 261q-120 0 -183 98l64 53q46 -67 112 -67q40 0 60.5 18t20.5 48q0 36 -25.5 53t-83.5 17h-34v73h36q98 0 98 59q0 52 -65 52q-58 0 -107 -52l-58 61q73 76 173 76q76 0 116.5 -34.5t40.5 -91.5q0 -77 -74 -103q87 -27 87 -112q0 -69 -48.5 -108.5t-129.5 -39.5z" />
    <glyph glyph-name="acute" unicode="&#xb4;" horiz-adv-x="500" 
d="M156 587l94 166h133l-145 -166h-82z" />
    <glyph glyph-name="mu" unicode="&#xb5;" horiz-adv-x="608" 
d="M69 -200v731h123v-351q0 -89 80 -89q67 0 144 69v371h123v-531h-123v84q-71 -77 -152 -88q-48 -3 -72 16v-212h-123z" />
    <glyph glyph-name="paragraph" unicode="&#xb6;" horiz-adv-x="630" 
d="M294 -200v523q-118 2 -180.5 55t-62.5 152q0 92 60.5 151t168.5 59h283v-940h-88v845h-93v-845h-88z" />
    <glyph glyph-name="periodcentered" unicode="&#xb7;" horiz-adv-x="281" 
d="M69 264v130h143v-130h-143z" />
    <glyph glyph-name="cedilla" unicode="&#xb8;" horiz-adv-x="500" 
d="M258 -199q-82 0 -138 37l24 40q45 -30 103 -30q60 0 60 39q0 31 -36 31q-23 0 -46 -18l-36 17l26 83h57l-14 -49q23 15 61 15q29 0 50 -18.5t21 -50.5q0 -46 -37.5 -71t-94.5 -25z" />
    <glyph glyph-name="onesuperior" unicode="&#xb9;" horiz-adv-x="411" 
d="M83 268v83h82v288q-34 -14 -81 -14v85q62 1 90 29h92v-388h72v-83h-255z" />
    <glyph glyph-name="ordmasculine" unicode="&#xba;" horiz-adv-x="451" 
d="M226 364q-76 0 -130 49t-54 144q0 97 53.5 145t130.5 48q76 0 129.5 -48t53.5 -145q0 -95 -53.5 -144t-129.5 -49zM226 431q44 0 68 34.5t24 91.5q0 55 -23 90.5t-69 35.5q-45 0 -69 -34.5t-24 -91.5q0 -55 23 -90.5t70 -35.5z" />
    <glyph glyph-name="guillemotright" unicode="&#xbb;" horiz-adv-x="588" 
d="M277 0l153 266l-153 265h119l159 -265l-159 -266h-119zM41 0l154 266l-154 265h120l160 -265l-160 -266h-120z" />
    <glyph glyph-name="onequarter" unicode="&#xbc;" horiz-adv-x="1008" 
d="M83 268v83h82v288q-34 -14 -81 -14v85q62 1 90 29h92v-388h72v-83h-255zM238 0l443 740h108l-443 -740h-108zM782 0v104h-214v64l209 304h105v-288h75v-80h-75v-104h-100zM674 184h110v164z" />
    <glyph glyph-name="onehalf" unicode="&#xbd;" horiz-adv-x="1043" 
d="M83 268v83h82v288q-34 -14 -81 -14v85q62 1 90 29h92v-388h72v-83h-255zM238 0l443 740h108l-443 -740h-108zM639 0v24q0 58 30 107t116 104q52 34 71 54t19 49q0 26 -16 41t-45 15q-60 0 -102 -75l-71 48q65 113 177 113q73 0 114.5 -38t41.5 -102q0 -46 -26.5 -84
t-92.5 -76q-88 -53 -98 -97h220v-83h-338z" />
    <glyph glyph-name="threequarters" unicode="&#xbe;" horiz-adv-x="1042" 
d="M230 261q-120 0 -183 98l64 53q46 -67 112 -67q40 0 60.5 18t20.5 48q0 36 -25.5 53t-83.5 17h-34v73h36q98 0 98 59q0 52 -65 52q-58 0 -107 -52l-58 61q73 76 173 76q76 0 116.5 -34.5t40.5 -91.5q0 -77 -74 -103q87 -27 87 -112q0 -69 -48.5 -108.5t-129.5 -39.5z
M273 0l442 740h108l-442 -740h-108zM816 0v104h-214v64l209 304h105v-288h75v-80h-75v-104h-100zM708 184h110v164z" />
    <glyph glyph-name="questiondown" unicode="&#xbf;" horiz-adv-x="572" 
d="M241 615v125h137v-125h-137zM274 -14q-109 0 -168 50t-59 132q0 65 31.5 105t90.5 72q63 34 76.5 63.5t13.5 112.5h101q3 -24 3 -70q0 -101 -98 -156q-55 -32 -75 -54.5t-20 -63.5q0 -38 30.5 -59.5t84.5 -21.5q51 0 97 25t77 61l79 -71q-104 -125 -264 -125z" />
    <glyph glyph-name="Agrave" unicode="&#xc0;" horiz-adv-x="697" 
d="M25 0l262 743h123l262 -743h-128l-60 176h-281l-61 -176h-117zM241 286h206l-101 300h-2zM315 785l-145 166h133l94 -166h-82z" />
    <glyph glyph-name="Aacute" unicode="&#xc1;" horiz-adv-x="697" 
d="M25 0l262 743h123l262 -743h-128l-60 176h-281l-61 -176h-117zM241 286h206l-101 300h-2zM301 785l94 166h133l-145 -166h-82z" />
    <glyph glyph-name="Acircumflex" unicode="&#xc2;" horiz-adv-x="697" 
d="M25 0l262 743h123l262 -743h-128l-60 176h-281l-61 -176h-117zM241 286h206l-101 300h-2zM177 785l129 166h85l129 -166h-72l-100 84l-100 -84h-71z" />
    <glyph glyph-name="Atilde" unicode="&#xc3;" horiz-adv-x="697" 
d="M25 0l262 743h123l262 -743h-128l-60 176h-281l-61 -176h-117zM241 286h206l-101 300h-2zM424 778q-36 0 -81.5 28t-63.5 28q-41 0 -41 -54h-70q0 139 105 139q36 0 81.5 -28t64.5 -28q41 0 41 54h69q0 -139 -105 -139z" />
    <glyph glyph-name="Adieresis" unicode="&#xc4;" horiz-adv-x="697" 
d="M25 0l262 743h123l262 -743h-128l-60 176h-281l-61 -176h-117zM241 286h206l-101 300h-2zM389 782v121h113v-121h-113zM192 782v121h112v-121h-112z" />
    <glyph glyph-name="Aring" unicode="&#xc5;" horiz-adv-x="697" 
d="M418 721l254 -721h-128l-60 176h-281l-61 -176h-117l254 720q-33 30 -33 77q0 44 29 72.5t73 28.5t73 -28.5t29 -72.5q0 -47 -32 -76zM348 746q21 0 35 14.5t14 36.5t-14 36.5t-35 14.5t-35 -14.5t-14 -36.5t14 -36.5t35 -14.5zM241 286h206l-101 300h-2z" />
    <glyph glyph-name="AE" unicode="&#xc6;" horiz-adv-x="1042" 
d="M20 0l421 740h541v-116h-353v-184h259v-111h-259v-215h373v-114h-497v208h-242l-117 -208h-126zM325 318h180v318h-1z" />
    <glyph glyph-name="Ccedilla" unicode="&#xc7;" horiz-adv-x="717" 
d="M376 -199q-83 0 -139 37l25 40q45 -30 103 -30q59 0 59 39q0 31 -36 31q-23 0 -46 -18l-35 17l22 71q-128 15 -204.5 115t-76.5 269q0 178 91 280t234 102q231 0 287 -230l-119 -34q-23 79 -61 119t-108 40q-93 0 -145.5 -74.5t-52.5 -201.5q0 -132 53 -208t147 -76
q71 0 114 42.5t64 127.5l119 -27q-58 -239 -285 -246l-10 -35q23 15 60 15q30 0 51 -18.5t21 -50.5q0 -46 -37.5 -71t-94.5 -25z" />
    <glyph glyph-name="Egrave" unicode="&#xc8;" horiz-adv-x="621" 
d="M84 0v740h478v-116h-353v-184h259v-111h-259v-215h373v-114h-498zM309 785l-145 166h133l94 -166h-82z" />
    <glyph glyph-name="Eacute" unicode="&#xc9;" horiz-adv-x="621" 
d="M84 0v740h478v-116h-353v-184h259v-111h-259v-215h373v-114h-498zM251 785l94 166h133l-145 -166h-82z" />
    <glyph glyph-name="Ecircumflex" unicode="&#xca;" horiz-adv-x="621" 
d="M84 0v740h478v-116h-353v-184h259v-111h-259v-215h373v-114h-498zM151 785l129 166h85l129 -166h-72l-100 84l-100 -84h-71z" />
    <glyph glyph-name="Edieresis" unicode="&#xcb;" horiz-adv-x="621" 
d="M84 0v740h478v-116h-353v-184h259v-111h-259v-215h373v-114h-498zM368 782v121h113v-121h-113zM171 782v121h112v-121h-112z" />
    <glyph glyph-name="Igrave" unicode="&#xcc;" horiz-adv-x="310" 
d="M92 0v740h126v-740h-126zM125 785l-145 166h133l94 -166h-82z" />
    <glyph glyph-name="Iacute" unicode="&#xcd;" horiz-adv-x="310" 
d="M92 0v740h126v-740h-126zM108 785l94 166h133l-145 -166h-82z" />
    <glyph glyph-name="Icircumflex" unicode="&#xce;" horiz-adv-x="310" 
d="M92 0v740h126v-740h-126zM-17 785l129 166h85l129 -166h-72l-100 84l-100 -84h-71z" />
    <glyph glyph-name="Idieresis" unicode="&#xcf;" horiz-adv-x="310" 
d="M92 0v740h126v-740h-126zM196 782v121h113v-121h-113zM-1 782v121h112v-121h-112z" />
    <glyph glyph-name="Eth" unicode="&#xd0;" horiz-adv-x="728" 
d="M84 0v335h-73v96h73v309h211q182 0 283 -90t101 -280q0 -188 -102 -279t-282 -91h-211zM208 111h98q128 0 188 61.5t60 200.5q0 132 -60.5 191.5t-189.5 59.5h-96v-193h155v-96h-155v-224z" />
    <glyph glyph-name="Ntilde" unicode="&#xd1;" horiz-adv-x="763" 
d="M84 0v740h127l350 -528h2v528h116v-740h-114l-363 539h-2v-539h-116zM463 778q-36 0 -81.5 28t-63.5 28q-41 0 -41 -54h-70q0 139 105 139q36 0 81.5 -28t64.5 -28q41 0 41 54h69q0 -139 -105 -139z" />
    <glyph glyph-name="Ograve" unicode="&#xd2;" horiz-adv-x="764" 
d="M383 -14q-146 0 -240.5 101.5t-94.5 282.5t94.5 282.5t240.5 101.5t239.5 -101.5t93.5 -282.5t-93.5 -282.5t-239.5 -101.5zM383 99q95 0 151 71.5t56 199.5t-56 198.5t-151 70.5q-96 0 -152.5 -70.5t-56.5 -198.5q0 -129 56.5 -200t152.5 -71zM361 785l-145 166h133
l94 -166h-82z" />
    <glyph glyph-name="Oacute" unicode="&#xd3;" horiz-adv-x="764" 
d="M383 -14q-146 0 -240.5 101.5t-94.5 282.5t94.5 282.5t240.5 101.5t239.5 -101.5t93.5 -282.5t-93.5 -282.5t-239.5 -101.5zM383 99q95 0 151 71.5t56 199.5t-56 198.5t-151 70.5q-96 0 -152.5 -70.5t-56.5 -198.5q0 -129 56.5 -200t152.5 -71zM318 785l94 166h133
l-145 -166h-82z" />
    <glyph glyph-name="Ocircumflex" unicode="&#xd4;" horiz-adv-x="764" 
d="M383 -14q-146 0 -240.5 101.5t-94.5 282.5t94.5 282.5t240.5 101.5t239.5 -101.5t93.5 -282.5t-93.5 -282.5t-239.5 -101.5zM383 99q95 0 151 71.5t56 199.5t-56 198.5t-151 70.5q-96 0 -152.5 -70.5t-56.5 -198.5q0 -129 56.5 -200t152.5 -71zM210 785l129 166h85
l129 -166h-72l-100 84l-100 -84h-71z" />
    <glyph glyph-name="Otilde" unicode="&#xd5;" horiz-adv-x="764" 
d="M383 -14q-146 0 -240.5 101.5t-94.5 282.5t94.5 282.5t240.5 101.5t239.5 -101.5t93.5 -282.5t-93.5 -282.5t-239.5 -101.5zM383 99q95 0 151 71.5t56 199.5t-56 198.5t-151 70.5q-96 0 -152.5 -70.5t-56.5 -198.5q0 -129 56.5 -200t152.5 -71zM457 778q-36 0 -81.5 28
t-63.5 28q-41 0 -41 -54h-70q0 139 105 139q36 0 81.5 -28t64.5 -28q41 0 41 54h69q0 -139 -105 -139z" />
    <glyph glyph-name="Odieresis" unicode="&#xd6;" horiz-adv-x="764" 
d="M383 -14q-146 0 -240.5 101.5t-94.5 282.5t94.5 282.5t240.5 101.5t239.5 -101.5t93.5 -282.5t-93.5 -282.5t-239.5 -101.5zM383 99q95 0 151 71.5t56 199.5t-56 198.5t-151 70.5q-96 0 -152.5 -70.5t-56.5 -198.5q0 -129 56.5 -200t152.5 -71zM423 782v121h113v-121
h-113zM226 782v121h112v-121h-112z" />
    <glyph glyph-name="multiply" unicode="&#xd7;" horiz-adv-x="642" 
d="M157 84l-73 73l164 163l-164 163l73 72l163 -163l163 163l72 -72l-162 -162l164 -163l-73 -72l-163 163z" />
    <glyph glyph-name="Oslash" unicode="&#xd8;" horiz-adv-x="764" 
d="M643 626q73 -100 73 -256q0 -181 -93.5 -282.5t-239.5 -101.5q-120 0 -206 69l-67 -80l-63 49l74 89q-73 102 -73 257q0 181 94.5 282.5t240.5 101.5q121 0 204 -69l67 80l63 -49zM203 208l312 385q-53 50 -132 50q-97 0 -154.5 -72t-57.5 -201q0 -93 32 -162zM561 531
l-313 -385q54 -52 135 -52q95 0 152.5 73.5t57.5 202.5q0 95 -32 161z" />
    <glyph glyph-name="Ugrave" unicode="&#xd9;" horiz-adv-x="721" 
d="M361 -12q-147 0 -217 75t-70 207v470h125v-459q0 -180 163 -180q162 0 162 179v460h123v-469q0 -130 -73.5 -206.5t-212.5 -76.5zM343 785l-145 166h133l94 -166h-82z" />
    <glyph glyph-name="Uacute" unicode="&#xda;" horiz-adv-x="721" 
d="M361 -12q-147 0 -217 75t-70 207v470h125v-459q0 -180 163 -180q162 0 162 179v460h123v-469q0 -130 -73.5 -206.5t-212.5 -76.5zM287 785l94 166h133l-145 -166h-82z" />
    <glyph glyph-name="Ucircumflex" unicode="&#xdb;" horiz-adv-x="721" 
d="M361 -12q-147 0 -217 75t-70 207v470h125v-459q0 -180 163 -180q162 0 162 179v460h123v-469q0 -130 -73.5 -206.5t-212.5 -76.5zM189 785l129 166h85l129 -166h-72l-100 84l-100 -84h-71z" />
    <glyph glyph-name="Udieresis" unicode="&#xdc;" horiz-adv-x="721" 
d="M361 -12q-147 0 -217 75t-70 207v470h125v-459q0 -180 163 -180q162 0 162 179v460h123v-469q0 -130 -73.5 -206.5t-212.5 -76.5zM401 782v121h113v-121h-113zM204 782v121h112v-121h-112z" />
    <glyph glyph-name="Yacute" unicode="&#xdd;" horiz-adv-x="661" 
d="M267 0v319l-252 421h132l185 -315l184 315h130l-253 -421v-319h-126zM241 790l94 166h133l-145 -166h-82z" />
    <glyph glyph-name="Thorn" unicode="&#xde;" horiz-adv-x="665" 
d="M84 0v740h125v-123h132q130 -1 208.5 -55t78.5 -175q0 -65 -23.5 -112t-65.5 -73t-92 -38t-110 -12h-128v-152h-125zM209 264h132q83 0 121.5 28t38.5 91q0 61 -38.5 89t-122.5 28h-131v-236z" />
    <glyph glyph-name="germandbls" unicode="&#xdf;" horiz-adv-x="655" 
d="M409 -11q-117 0 -177 64l64 74q45 -42 108 -42q47 0 74.5 32t27.5 84q0 78 -57.5 111t-166.5 37v89q153 1 153 111q0 42 -30.5 65t-86.5 23q-64 0 -95.5 -31.5t-31.5 -102.5v-503h-122v499q0 119 67.5 180t184.5 61q107 0 168 -48t61 -134q0 -58 -35 -98t-93 -57
q85 -10 142 -59t57 -138q0 -103 -57 -160t-155 -57z" />
    <glyph glyph-name="agrave" unicode="&#xe0;" horiz-adv-x="565" 
d="M185 -8q-67 0 -108.5 36t-41.5 100q0 89 82.5 144.5t263.5 75.5v16q0 76 -87 76q-89 0 -179 -72l-60 77q105 96 256 96q103 0 147 -47.5t44 -144.5v-219q0 -93 15 -130h-124q-12 38 -12 68q-75 -76 -196 -76zM230 87q87 0 151 61v117q-225 -31 -225 -114q0 -31 20 -47.5
t54 -16.5zM272 587l-145 166h133l94 -166h-82z" />
    <glyph glyph-name="aacute" unicode="&#xe1;" horiz-adv-x="565" 
d="M185 -8q-67 0 -108.5 36t-41.5 100q0 89 82.5 144.5t263.5 75.5v16q0 76 -87 76q-89 0 -179 -72l-60 77q105 96 256 96q103 0 147 -47.5t44 -144.5v-219q0 -93 15 -130h-124q-12 38 -12 68q-75 -76 -196 -76zM230 87q87 0 151 61v117q-225 -31 -225 -114q0 -31 20 -47.5
t54 -16.5zM222 587l94 166h133l-145 -166h-82z" />
    <glyph glyph-name="acircumflex" unicode="&#xe2;" horiz-adv-x="565" 
d="M185 -8q-67 0 -108.5 36t-41.5 100q0 89 82.5 144.5t263.5 75.5v16q0 76 -87 76q-89 0 -179 -72l-60 77q105 96 256 96q103 0 147 -47.5t44 -144.5v-219q0 -93 15 -130h-124q-12 38 -12 68q-75 -76 -196 -76zM230 87q87 0 151 61v117q-225 -31 -225 -114q0 -31 20 -47.5
t54 -16.5zM115 587l129 166h85l129 -166h-72l-100 84l-100 -84h-71z" />
    <glyph glyph-name="atilde" unicode="&#xe3;" horiz-adv-x="565" 
d="M185 -8q-67 0 -108.5 36t-41.5 100q0 89 82.5 144.5t263.5 75.5v16q0 76 -87 76q-89 0 -179 -72l-60 77q105 96 256 96q103 0 147 -47.5t44 -144.5v-219q0 -93 15 -130h-124q-12 38 -12 68q-75 -76 -196 -76zM230 87q87 0 151 61v117q-225 -31 -225 -114q0 -31 20 -47.5
t54 -16.5zM361 580q-36 0 -81.5 28t-63.5 28q-41 0 -41 -54h-70q0 139 105 139q36 0 81.5 -28t64.5 -28q41 0 41 54h69q0 -139 -105 -139z" />
    <glyph glyph-name="adieresis" unicode="&#xe4;" horiz-adv-x="565" 
d="M185 -8q-67 0 -108.5 36t-41.5 100q0 89 82.5 144.5t263.5 75.5v16q0 76 -87 76q-89 0 -179 -72l-60 77q105 96 256 96q103 0 147 -47.5t44 -144.5v-219q0 -93 15 -130h-124q-12 38 -12 68q-75 -76 -196 -76zM230 87q87 0 151 61v117q-225 -31 -225 -114q0 -31 20 -47.5
t54 -16.5zM331 584v121h113v-121h-113zM134 584v121h112v-121h-112z" />
    <glyph glyph-name="aring" unicode="&#xe5;" horiz-adv-x="565" 
d="M185 -8q-67 0 -108.5 36t-41.5 100q0 89 82.5 144.5t263.5 75.5v16q0 76 -87 76q-89 0 -179 -72l-60 77q105 96 256 96q103 0 147 -47.5t44 -144.5v-219q0 -93 15 -130h-124q-12 38 -12 68q-75 -76 -196 -76zM230 87q87 0 151 61v117q-225 -31 -225 -114q0 -31 20 -47.5
t54 -16.5zM291 579q-44 0 -73 29t-29 73t29 72.5t73 28.5t73 -28.5t29 -72.5t-29 -73t-73 -29zM291 630q21 0 35 14.5t14 36.5t-14 36.5t-35 14.5t-35 -14.5t-14 -36.5t14 -36.5t35 -14.5z" />
    <glyph glyph-name="ae" unicode="&#xe6;" horiz-adv-x="895" 
d="M185 -11q-67 0 -108.5 36t-41.5 100q0 184 346 223v16q0 76 -87 76q-89 0 -179 -72l-60 77q105 96 256 96q65 0 99.5 -21.5t50.5 -61.5q24 36 69 59.5t93 23.5q100 0 166.5 -68.5t66.5 -218.5v-24h-363q4 -73 42 -108t100 -35q49 0 83 15t66 47l65 -64q-88 -96 -224 -96
q-145 0 -207 108q-53 -58 -105.5 -83t-127.5 -25zM495 317h248q-11 124 -121 124q-49 0 -84 -30t-43 -94zM229 84q90 0 163 76q-9 29 -11 79v29q-225 -31 -225 -120q0 -31 19.5 -47.5t53.5 -16.5z" />
    <glyph glyph-name="ccedilla" unicode="&#xe7;" horiz-adv-x="545" 
d="M289 -199q-83 0 -139 37l25 40q45 -30 103 -30q59 0 59 39q0 31 -36 31q-23 0 -46 -18l-35 17l23 77q-88 13 -146 81.5t-58 189.5q0 73 23 128.5t61 86.5t81 46t90 15q91 0 141.5 -42t78.5 -113l-104 -37q-18 53 -46 76.5t-72 23.5q-56 0 -92.5 -46.5t-36.5 -137.5
q0 -86 33.5 -136t93.5 -50q43 0 73 24t51 79l102 -37q-66 -148 -216 -154l-11 -40q23 15 60 15q30 0 51 -18.5t21 -50.5q0 -46 -37.5 -71t-94.5 -25z" />
    <glyph glyph-name="egrave" unicode="&#xe8;" horiz-adv-x="564" 
d="M295 -11q-109 0 -182.5 69t-73.5 207q0 72 23.5 127.5t62 86.5t81 46.5t86.5 15.5q101 0 167 -68.5t66 -218.5v-29h-363q4 -69 42 -103.5t100 -34.5q49 0 83 15t66 47l65 -64q-87 -96 -223 -96zM164 317h248q-11 124 -121 124q-49 0 -84 -30t-43 -94zM264 587l-145 166
h133l94 -166h-82z" />
    <glyph glyph-name="eacute" unicode="&#xe9;" horiz-adv-x="564" 
d="M295 -11q-109 0 -182.5 69t-73.5 207q0 72 23.5 127.5t62 86.5t81 46.5t86.5 15.5q101 0 167 -68.5t66 -218.5v-29h-363q4 -69 42 -103.5t100 -34.5q49 0 83 15t66 47l65 -64q-87 -96 -223 -96zM164 317h248q-11 124 -121 124q-49 0 -84 -30t-43 -94zM223 587l94 166h133
l-145 -166h-82z" />
    <glyph glyph-name="ecircumflex" unicode="&#xea;" horiz-adv-x="564" 
d="M295 -11q-109 0 -182.5 69t-73.5 207q0 72 23.5 127.5t62 86.5t81 46.5t86.5 15.5q101 0 167 -68.5t66 -218.5v-29h-363q4 -69 42 -103.5t100 -34.5q49 0 83 15t66 47l65 -64q-87 -96 -223 -96zM164 317h248q-11 124 -121 124q-49 0 -84 -30t-43 -94zM115 587l129 166h85
l129 -166h-72l-100 84l-100 -84h-71z" />
    <glyph glyph-name="edieresis" unicode="&#xeb;" horiz-adv-x="564" 
d="M295 -11q-109 0 -182.5 69t-73.5 207q0 72 23.5 127.5t62 86.5t81 46.5t86.5 15.5q101 0 167 -68.5t66 -218.5v-29h-363q4 -69 42 -103.5t100 -34.5q49 0 83 15t66 47l65 -64q-87 -96 -223 -96zM164 317h248q-11 124 -121 124q-49 0 -84 -30t-43 -94zM325 584v121h113
v-121h-113zM128 584v121h112v-121h-112z" />
    <glyph glyph-name="igrave" unicode="&#xec;" horiz-adv-x="272" 
d="M74 0v531h124v-531h-124zM103 587l-145 166h133l94 -166h-82z" />
    <glyph glyph-name="iacute" unicode="&#xed;" horiz-adv-x="272" 
d="M74 0v531h124v-531h-124zM94 587l94 166h133l-145 -166h-82z" />
    <glyph glyph-name="icircumflex" unicode="&#xee;" horiz-adv-x="272" 
d="M74 0v531h124v-531h-124zM-36 587l129 166h85l129 -166h-72l-100 84l-100 -84h-71z" />
    <glyph glyph-name="idieresis" unicode="&#xef;" horiz-adv-x="272" 
d="M74 0v531h124v-531h-124zM177 584v121h113v-121h-113zM-20 584v121h112v-121h-112z" />
    <glyph glyph-name="eth" unicode="&#xf0;" horiz-adv-x="595" 
d="M298 -11q-113 0 -185.5 70t-72.5 188q0 120 66 187t166 67q41 0 84.5 -20t70.5 -55q-20 87 -70 148l-89 -38l-36 68l74 32q-25 25 -66 54l59 70q57 -35 98 -76l89 40l36 -69l-73 -33q106 -143 106 -359q0 -126 -72 -200t-185 -74zM298 89q63 0 98.5 41.5t35.5 118.5
q0 74 -35.5 115.5t-98.5 41.5t-99 -40.5t-36 -117.5q0 -75 35.5 -117t99.5 -42z" />
    <glyph glyph-name="ntilde" unicode="&#xf1;" 
d="M69 0v531h124v-72q77 82 194 82q71 0 112 -41.5t41 -118.5v-381h-124v350q0 86 -79 86q-68 0 -144 -69v-367h-124zM381 580q-36 0 -81.5 28t-63.5 28q-41 0 -41 -54h-70q0 139 105 139q36 0 81.5 -28t64.5 -28q41 0 41 54h69q0 -139 -105 -139z" />
    <glyph glyph-name="ograve" unicode="&#xf2;" horiz-adv-x="596" 
d="M298 -11q-107 0 -183 70t-76 206q0 137 75.5 206.5t183.5 69.5q107 0 183 -69.5t76 -206.5q0 -136 -76 -206t-183 -70zM298 92q66 0 100.5 45t34.5 128q0 78 -34 124.5t-101 46.5q-66 0 -100.5 -45t-34.5 -126q0 -79 33.5 -126t101.5 -47zM277 587l-145 166h133l94 -166
h-82z" />
    <glyph glyph-name="oacute" unicode="&#xf3;" horiz-adv-x="596" 
d="M298 -11q-107 0 -183 70t-76 206q0 137 75.5 206.5t183.5 69.5q107 0 183 -69.5t76 -206.5q0 -136 -76 -206t-183 -70zM298 92q66 0 100.5 45t34.5 128q0 78 -34 124.5t-101 46.5q-66 0 -100.5 -45t-34.5 -126q0 -79 33.5 -126t101.5 -47zM235 587l94 166h133l-145 -166
h-82z" />
    <glyph glyph-name="ocircumflex" unicode="&#xf4;" horiz-adv-x="596" 
d="M298 -11q-107 0 -183 70t-76 206q0 137 75.5 206.5t183.5 69.5q107 0 183 -69.5t76 -206.5q0 -136 -76 -206t-183 -70zM298 92q66 0 100.5 45t34.5 128q0 78 -34 124.5t-101 46.5q-66 0 -100.5 -45t-34.5 -126q0 -79 33.5 -126t101.5 -47zM127 587l129 166h85l129 -166
h-72l-100 84l-100 -84h-71z" />
    <glyph glyph-name="otilde" unicode="&#xf5;" horiz-adv-x="596" 
d="M298 -11q-107 0 -183 70t-76 206q0 137 75.5 206.5t183.5 69.5q107 0 183 -69.5t76 -206.5q0 -136 -76 -206t-183 -70zM298 92q66 0 100.5 45t34.5 128q0 78 -34 124.5t-101 46.5q-66 0 -100.5 -45t-34.5 -126q0 -79 33.5 -126t101.5 -47zM375 580q-36 0 -81.5 28
t-63.5 28q-41 0 -41 -54h-70q0 139 105 139q36 0 81.5 -28t64.5 -28q41 0 41 54h69q0 -139 -105 -139z" />
    <glyph glyph-name="odieresis" unicode="&#xf6;" horiz-adv-x="596" 
d="M298 -11q-107 0 -183 70t-76 206q0 137 75.5 206.5t183.5 69.5q107 0 183 -69.5t76 -206.5q0 -136 -76 -206t-183 -70zM298 92q66 0 100.5 45t34.5 128q0 78 -34 124.5t-101 46.5q-66 0 -100.5 -45t-34.5 -126q0 -79 33.5 -126t101.5 -47zM339 584v121h113v-121h-113z
M142 584v121h112v-121h-112z" />
    <glyph glyph-name="divide" unicode="&#xf7;" horiz-adv-x="642" 
d="M262 476v105h115v-105h-115zM67 292v99h509v-99h-509zM262 101v105h115v-105h-115z" />
    <glyph glyph-name="oslash" unicode="&#xf8;" horiz-adv-x="596" 
d="M501 450q56 -72 56 -185q0 -136 -76 -206t-183 -70q-83 0 -147 41l-59 -68l-52 48l58 67q-59 74 -59 188q0 137 75.5 206.5t183.5 69.5q87 0 150 -43l56 66l53 -49zM178 166l202 249q-33 27 -82 27q-66 0 -102 -47.5t-36 -129.5q0 -57 18 -99zM420 359l-202 -248
q32 -26 80 -26q66 0 102 48t36 132q0 55 -16 94z" />
    <glyph glyph-name="ugrave" unicode="&#xf9;" 
d="M216 -10q-71 0 -112 41.5t-41 118.5v381h124v-352q0 -86 79 -86q68 0 144 69v369h124v-531h-124v72q-77 -82 -194 -82zM282 587l-145 166h133l94 -166h-82z" />
    <glyph glyph-name="uacute" unicode="&#xfa;" 
d="M216 -10q-71 0 -112 41.5t-41 118.5v381h124v-352q0 -86 79 -86q68 0 144 69v369h124v-531h-124v72q-77 -82 -194 -82zM233 587l94 166h133l-145 -166h-82z" />
    <glyph glyph-name="ucircumflex" unicode="&#xfb;" 
d="M216 -10q-71 0 -112 41.5t-41 118.5v381h124v-352q0 -86 79 -86q68 0 144 69v369h124v-531h-124v72q-77 -82 -194 -82zM127 587l129 166h85l129 -166h-72l-100 84l-100 -84h-71z" />
    <glyph glyph-name="udieresis" unicode="&#xfc;" 
d="M216 -10q-71 0 -112 41.5t-41 118.5v381h124v-352q0 -86 79 -86q68 0 144 69v369h124v-531h-124v72q-77 -82 -194 -82zM341 584v121h113v-121h-113zM144 584v121h112v-121h-112z" />
    <glyph glyph-name="yacute" unicode="&#xfd;" horiz-adv-x="547" 
d="M125 -206q-67 0 -126 16l28 99q41 -11 90 -11q33 0 52 14t32 46l15 39l-204 534h128l137 -387h2l136 387h122l-226 -589q-28 -75 -69.5 -111.5t-116.5 -36.5zM184 587l94 166h133l-145 -166h-82z" />
    <glyph glyph-name="thorn" unicode="&#xfe;" horiz-adv-x="611" 
d="M69 -200v940h123v-279q67 80 169 80q94 0 152 -70.5t58 -204.5t-61 -204t-166 -70q-93 0 -152 67v-259h-123zM317 90q69 0 100 42.5t31 132.5q0 83 -33.5 127t-93.5 44q-73 0 -129 -67v-213q51 -66 125 -66z" />
    <glyph glyph-name="ydieresis" unicode="&#xff;" horiz-adv-x="547" 
d="M125 -206q-67 0 -126 16l28 99q41 -11 90 -11q33 0 52 14t32 46l15 39l-204 534h128l137 -387h2l136 387h122l-226 -589q-28 -75 -69.5 -111.5t-116.5 -36.5zM319 584v121h113v-121h-113zM122 584v121h112v-121h-112z" />
    <glyph glyph-name="dotlessi" unicode="&#x131;" horiz-adv-x="272" 
d="M74 0v531h124v-531h-124z" />
    <glyph glyph-name="Lslash" unicode="&#x141;" horiz-adv-x="578" 
d="M84 0v332l-83 -22v96l83 22v312h126v-279l148 40v-96l-148 -40v-251h340v-114h-466z" />
    <glyph glyph-name="lslash" unicode="&#x142;" horiz-adv-x="321" 
d="M99 0v315l-77 -21v92l77 21v333h124v-300l78 21v-92l-78 -21v-348h-124z" />
    <glyph glyph-name="OE" unicode="&#x152;" horiz-adv-x="1126" 
d="M382 -14q-141 0 -238 102.5t-97 281.5t97 281.5t238 102.5q138 0 218 -109v95h467v-116h-353v-184h259v-111h-259v-215h372v-114h-486v96q-38 -51 -94 -80.5t-124 -29.5zM382 99q95 0 151 71.5t56 199.5t-56 198.5t-151 70.5q-96 0 -152.5 -70.5t-56.5 -198.5
q0 -129 56.5 -200t152.5 -71z" />
    <glyph glyph-name="oe" unicode="&#x153;" horiz-adv-x="950" 
d="M297 -11q-107 0 -182.5 70t-75.5 206q0 137 75 206.5t183 69.5q62 0 114 -28.5t79 -78.5q25 47 78.5 77t110.5 30q100 0 166 -68.5t66 -218.5v-24h-363q4 -73 42 -108t100 -35q49 0 83 15t66 47l65 -64q-87 -96 -223 -96q-62 0 -116 28t-77 75q-30 -48 -80 -75.5
t-111 -27.5zM550 317h248q-11 124 -121 124q-49 0 -84 -30t-43 -94zM297 91q66 0 100 45.5t34 128.5q0 78 -33.5 124.5t-100.5 46.5q-66 0 -100 -45t-34 -126q0 -80 33 -127t101 -47z" />
    <glyph glyph-name="Scaron" unicode="&#x160;" horiz-adv-x="674" 
d="M343 -14q-107 0 -184.5 50.5t-113.5 137.5l99 52q65 -129 204 -129q70 0 110.5 23.5t40.5 72.5q0 47 -37 74.5t-131 55.5q-37 11 -60 18.5t-53.5 19.5t-49 23t-38.5 27.5t-31 35t-18.5 43.5t-7.5 55q0 94 70 151.5t183 57.5q195 0 277 -159l-91 -63q-64 108 -187 108
q-62 0 -95.5 -22t-33.5 -62q0 -49 37.5 -74t136.5 -54q61 -18 100 -34t77 -41.5t56.5 -63t18.5 -87.5q0 -94 -75 -155t-204 -61zM293 793l-129 166h72l100 -84l100 84h71l-129 -166h-85z" />
    <glyph glyph-name="scaron" unicode="&#x161;" horiz-adv-x="523" 
d="M263 -11q-72 0 -134.5 23t-99.5 61l67 75q74 -63 167 -63q106 0 106 61q0 15 -8.5 26.5t-28 20t-35 13t-46.5 11.5q-32 7 -47.5 11.5t-44 14t-43.5 20.5t-32.5 28t-25 40.5t-7.5 53.5q0 70 54.5 113t142.5 43q128 0 218 -75l-59 -80q-30 25 -72.5 41.5t-77.5 16.5
q-90 0 -90 -54q0 -29 28.5 -43t87.5 -27q38 -8 57 -13t52 -18.5t49.5 -29t30 -43t13.5 -63.5q0 -80 -62.5 -122t-159.5 -42zM217 590l-129 166h72l100 -84l100 84h71l-129 -166h-85z" />
    <glyph glyph-name="Ydieresis" unicode="&#x178;" horiz-adv-x="661" 
d="M267 0v319l-252 421h132l185 -315l184 315h130l-253 -421v-319h-126zM373 782v121h113v-121h-113zM176 782v121h112v-121h-112z" />
    <glyph glyph-name="Zcaron" unicode="&#x17d;" horiz-adv-x="645" 
d="M35 0v87l409 548h-382v105h539v-90l-404 -548h404v-102h-566zM284 793l-129 166h72l100 -84l100 84h71l-129 -166h-85z" />
    <glyph glyph-name="zcaron" unicode="&#x17e;" horiz-adv-x="520" 
d="M34 0v71l283 362h-262v98h416v-74l-284 -362h301v-95h-454zM219 590l-129 166h72l100 -84l100 84h71l-129 -166h-85z" />
    <glyph glyph-name="florin" unicode="&#x192;" horiz-adv-x="385" 
d="M-92 -197l11 87q16 -4 41 -4q81 0 91 79l58 432h-92l11 89h92l13 99q9 75 53 116.5t140 41.5q28 0 73 -5l-12 -90q-16 4 -41 4q-83 0 -90 -69l-13 -97h116l-11 -89h-116l-60 -452q-9 -69 -52.5 -108t-138.5 -39q-51 0 -73 5z" />
    <glyph glyph-name="circumflex" unicode="&#x2c6;" horiz-adv-x="535" 
d="M96 587l129 166h85l129 -166h-72l-100 84l-100 -84h-71z" />
    <glyph glyph-name="caron" unicode="&#x2c7;" horiz-adv-x="535" 
d="M224 590l-129 166h72l100 -84l100 84h71l-129 -166h-85z" />
    <glyph glyph-name="breve" unicode="&#x2d8;" horiz-adv-x="500" 
d="M250 579q-75 0 -118.5 48.5t-47.5 128.5h69q11 -95 97 -95t97 95h69q-4 -80 -47.5 -128.5t-118.5 -48.5z" />
    <glyph glyph-name="dotaccent" unicode="&#x2d9;" horiz-adv-x="500" 
d="M184 595v111h132v-111h-132z" />
    <glyph glyph-name="ring" unicode="&#x2da;" horiz-adv-x="540" 
d="M270 579q-44 0 -73 29t-29 73t29 72.5t73 28.5t73 -28.5t29 -72.5t-29 -73t-73 -29zM270 630q21 0 35 14.5t14 36.5t-14 36.5t-35 14.5t-35 -14.5t-14 -36.5t14 -36.5t35 -14.5z" />
    <glyph glyph-name="ogonek" unicode="&#x2db;" horiz-adv-x="500" 
d="M260 -187q-50 0 -77 20.5t-27 56.5q0 58 82 110h69q-64 -45 -64 -90q0 -43 48 -43q40 0 88 25l25 -40q-70 -39 -144 -39z" />
    <glyph glyph-name="tilde" unicode="&#x2dc;" horiz-adv-x="515" 
d="M333 580q-36 0 -81.5 28t-63.5 28q-41 0 -41 -54h-70q0 139 105 139q36 0 81.5 -28t64.5 -28q41 0 41 54h69q0 -139 -105 -139z" />
    <glyph glyph-name="hungarumlaut" unicode="&#x2dd;" horiz-adv-x="518" 
d="M241 587l106 166h134l-157 -166h-83zM62 587l101 166h134l-152 -166h-83z" />
    <glyph glyph-name="pi" unicode="&#x3c0;" horiz-adv-x="865" 
d="M432 -14q-162 0 -272 110.5t-110 272.5t111 273.5t273 111.5q161 0 271 -111t110 -272t-111 -273t-272 -112zM434 44q135 0 226.5 93.5t91.5 231.5t-92.5 232.5t-227.5 94.5q-136 0 -227.5 -93.5t-91.5 -231.5t92.5 -232.5t228.5 -94.5zM298 163v419h155q156 0 156 -126
q0 -66 -43 -98.5t-119 -32.5h-70v-162h-79zM377 390h73q81 0 81 62t-82 62h-72v-124z" />
    <glyph glyph-name="endash" unicode="&#x2013;" horiz-adv-x="650" 
d="M60 259v106h530v-106h-530z" />
    <glyph glyph-name="emdash" unicode="&#x2014;" horiz-adv-x="935" 
d="M60 259v106h815v-106h-815z" />
    <glyph glyph-name="quoteleft" unicode="&#x2018;" horiz-adv-x="276" 
d="M72 498v119l64 123h57l-35 -112h46v-130h-132z" />
    <glyph glyph-name="quoteright" unicode="&#x2019;" horiz-adv-x="276" 
d="M83 498l35 112h-46v130h132v-119l-64 -123h-57z" />
    <glyph glyph-name="quotesinglbase" unicode="&#x201a;" horiz-adv-x="276" 
d="M83 -112l35 112h-46v130h132v-119l-64 -123h-57z" />
    <glyph glyph-name="quotedblleft" unicode="&#x201c;" horiz-adv-x="493" 
d="M289 498v119l64 123h57l-35 -112h46v-130h-132zM72 498v119l64 123h57l-35 -112h46v-130h-132z" />
    <glyph glyph-name="quotedblright" unicode="&#x201d;" horiz-adv-x="493" 
d="M300 498l35 112h-46v130h132v-119l-64 -123h-57zM83 498l35 112h-46v130h132v-119l-64 -123h-57z" />
    <glyph glyph-name="quotedblbase" unicode="&#x201e;" horiz-adv-x="493" 
d="M300 -112l35 112h-46v130h132v-119l-64 -123h-57zM83 -112l35 112h-46v130h132v-119l-64 -123h-57z" />
    <glyph glyph-name="dagger" unicode="&#x2020;" horiz-adv-x="588" 
d="M229 -200l20 591l-211 -14v114l211 -15l-20 264h130l-20 -264l211 15v-114l-211 14l20 -591h-130z" />
    <glyph glyph-name="daggerdbl" unicode="&#x2021;" horiz-adv-x="588" 
d="M229 -200l20 219l-196 -15v109l196 -14l-16 172l16 170l-196 -14v109l196 -15l-20 219h130l-20 -219l196 15v-109l-196 14l16 -170l-16 -172l196 14v-109l-196 15l20 -219h-130z" />
    <glyph glyph-name="bullet" unicode="&#x2022;" horiz-adv-x="463" 
d="M231 222q-55 0 -91.5 36t-36.5 92t36 92.5t92 36.5t92.5 -36.5t36.5 -92.5t-36.5 -92t-92.5 -36z" />
    <glyph glyph-name="ellipsis" unicode="&#x2026;" horiz-adv-x="828" 
d="M621 0v130h138v-130h-138zM345 0v130h138v-130h-138zM69 0v130h138v-130h-138z" />
    <glyph glyph-name="perthousand" unicode="&#x2030;" horiz-adv-x="1483" 
d="M237 283q-87 0 -136.5 63.5t-49.5 169.5q0 108 50.5 172t136.5 64t135.5 -63.5t49.5 -170.5q0 -106 -49.5 -170.5t-136.5 -64.5zM251 0l442 740h108l-442 -740h-108zM1246 -10q-87 0 -136.5 63.5t-49.5 169.5q0 108 50.5 171.5t136.5 63.5q85 0 135 -63t50 -170
q0 -106 -50 -170.5t-136 -64.5zM815 -10q-87 0 -136.5 63.5t-49.5 169.5q0 108 50.5 171.5t136.5 63.5q85 0 135 -63t50 -170q0 -106 -50 -170.5t-136 -64.5zM238 371q40 0 60.5 38.5t20.5 107.5q0 146 -82 146t-82 -145q0 -147 83 -147zM1246 77q41 0 61.5 39t20.5 108
q0 146 -82 146q-83 0 -83 -145q0 -148 83 -148zM815 77q41 0 61.5 39t20.5 108q0 146 -82 146q-83 0 -83 -145q0 -148 83 -148z" />
    <glyph glyph-name="guilsinglleft" unicode="&#x2039;" horiz-adv-x="353" 
d="M191 0l-159 266l159 265h120l-153 -265l153 -266h-120z" />
    <glyph glyph-name="guilsinglright" unicode="&#x203a;" horiz-adv-x="353" 
d="M41 0l154 266l-154 265h120l160 -265l-160 -266h-120z" />
    <glyph glyph-name="fraction" unicode="&#x2044;" horiz-adv-x="512" 
d="M-16 0l436 740h108l-436 -740h-108z" />
    <glyph glyph-name="Euro" unicode="&#x20ac;" horiz-adv-x="729" 
d="M131 400h-110v83h119q24 134 100.5 202.5t182.5 68.5q105 0 165 -53t89 -152l-108 -37q-22 72 -52 103t-93 31t-105 -41t-58 -122h186v-83h-195v-26q0 -29 1 -43h194v-84h-184q32 -155 163 -155q59 0 94 34t56 111l110 -33q-63 -218 -261 -218q-108 0 -183 65.5
t-100 195.5h-121v84h111q-1 13 -1 41v28z" />
    <glyph glyph-name="trademark" unicode="&#x2122;" horiz-adv-x="905" 
d="M425 317v423h116l98 -310l99 310h115v-423h-84v299l-97 -299h-72l-97 297v-297h-78zM151 317v351h-122v72h331v-72h-122v-351h-87z" />
    <glyph glyph-name="Omega" unicode="&#x2126;" horiz-adv-x="760" 
d="M161 151l-22 -2v94l29 -2l6 83l-164 -20v130l164 -20l-7 85l-28 -2v94l21 -2l-1 21h94l-2 -28l84 -6l-20 164h130l-20 -164l84 6l-2 28h94l-2 -21l22 2v-94l-29 2l-6 -85l164 20v-130l-164 20l6 -83l29 2v-94l-22 2l2 -23h-94l2 30l-84 6l20 -164h-130l20 164l-84 -6
l2 -30h-94zM425 511v-97h96l-7 91zM335 414v97l-90 -6l-6 -91h96zM425 324v-95l90 6l6 89h-96zM245 235l90 -6v95h-96z" />
    <glyph glyph-name="partialdiff" unicode="&#x2202;" horiz-adv-x="760" 
d="M161 151l-22 -2v94l29 -2l6 83l-164 -20v130l164 -20l-7 85l-28 -2v94l21 -2l-1 21h94l-2 -28l84 -6l-20 164h130l-20 -164l84 6l-2 28h94l-2 -21l22 2v-94l-29 2l-6 -85l164 20v-130l-164 20l6 -83l29 2v-94l-22 2l2 -23h-94l2 30l-84 6l20 -164h-130l20 164l-84 -6
l2 -30h-94zM425 511v-97h96l-7 91zM335 414v97l-90 -6l-6 -91h96zM425 324v-95l90 6l6 89h-96zM245 235l90 -6v95h-96z" />
    <glyph glyph-name="Delta" unicode="&#x2206;" horiz-adv-x="624" 
d="M424 618v112h125v-112h-125zM115 0v433h-92v98h92v54q0 72 37.5 115t121.5 43q24 0 69 -5v-95q-14 3 -37 3q-68 0 -68 -69v-46h104v-98h-104v-433h-123zM400 -202q-51 0 -75 6v86q18 -4 41 -4q59 0 59 67v578h123v-597q0 -63 -31.5 -99.5t-116.5 -36.5z" />
    <glyph glyph-name="product" unicode="&#x220f;" horiz-adv-x="536" 
d="M267 292q-97 0 -163.5 66.5t-66.5 164.5t67 165t165 67q97 0 163.5 -66.5t66.5 -163.5q0 -98 -67 -165.5t-165 -67.5zM269 330q80 0 134.5 55.5t54.5 137.5t-55 138.5t-136 56.5q-80 0 -134.5 -56t-54.5 -137q0 -83 54.5 -139t136.5 -56zM179 402v254h94q95 0 95 -79
q0 -54 -49 -72l55 -103h-54l-51 97h-39v-97h-51zM230 538h40q49 0 49 37q0 35 -49 35h-40v-72z" />
    <glyph glyph-name="summation" unicode="&#x2211;" horiz-adv-x="760" 
d="M161 151l-22 -2v94l29 -2l6 83l-164 -20v130l164 -20l-7 85l-28 -2v94l21 -2l-1 21h94l-2 -28l84 -6l-20 164h130l-20 -164l84 6l-2 28h94l-2 -21l22 2v-94l-29 2l-6 -85l164 20v-130l-164 20l6 -83l29 2v-94l-22 2l2 -23h-94l2 30l-84 6l20 -164h-130l20 164l-84 -6
l2 -30h-94zM425 511v-97h96l-7 91zM335 414v97l-90 -6l-6 -91h96zM425 324v-95l90 6l6 89h-96zM245 235l90 -6v95h-96z" />
    <glyph glyph-name="minus" unicode="&#x2212;" horiz-adv-x="642" 
d="M67 292v99h509v-99h-509z" />
    <glyph glyph-name="radical" unicode="&#x221a;" horiz-adv-x="567" 
d="M201 -1l-192 532h129l130 -392h2l200 601h119l-263 -741h-125z" />
    <glyph glyph-name="infinity" unicode="&#x221e;" horiz-adv-x="929" 
d="M733 618v112h125v-112h-125zM115 0v433h-92v98h92v54q0 72 37.5 115t121.5 43q24 0 69 -5v-95q-14 3 -37 3q-68 0 -68 -69v-46h187v48q0 73 38 118.5t121 45.5q23 0 68 -5v-95q-12 3 -37 3q-67 0 -67 -69v-46h103v-98h-103v-433h-123v433h-187v-433h-123zM734 0v531h123
v-531h-123z" />
    <glyph glyph-name="integral" unicode="&#x222b;" horiz-adv-x="760" 
d="M161 151l-22 -2v94l29 -2l6 83l-164 -20v130l164 -20l-7 85l-28 -2v94l21 -2l-1 21h94l-2 -28l84 -6l-20 164h130l-20 -164l84 6l-2 28h94l-2 -21l22 2v-94l-29 2l-6 -85l164 20v-130l-164 20l6 -83l29 2v-94l-22 2l2 -23h-94l2 30l-84 6l20 -164h-130l20 164l-84 -6
l2 -30h-94zM425 511v-97h96l-7 91zM335 414v97l-90 -6l-6 -91h96zM425 324v-95l90 6l6 89h-96zM245 235l90 -6v95h-96z" />
    <glyph glyph-name="approxequal" unicode="&#x2248;" horiz-adv-x="760" 
d="M161 151l-22 -2v94l29 -2l6 83l-164 -20v130l164 -20l-7 85l-28 -2v94l21 -2l-1 21h94l-2 -28l84 -6l-20 164h130l-20 -164l84 6l-2 28h94l-2 -21l22 2v-94l-29 2l-6 -85l164 20v-130l-164 20l6 -83l29 2v-94l-22 2l2 -23h-94l2 30l-84 6l20 -164h-130l20 164l-84 -6
l2 -30h-94zM425 511v-97h96l-7 91zM335 414v97l-90 -6l-6 -91h96zM425 324v-95l90 6l6 89h-96zM245 235l90 -6v95h-96z" />
    <glyph glyph-name="notequal" unicode="&#x2260;" horiz-adv-x="689" 
d="M115 0v433h-92v98h92v54q0 72 37.5 115t121.5 43q24 0 69 -5v-94q-14 3 -37 3q-68 0 -68 -69v-47h187v49q0 163 171 163q29 0 74 -5v-95q-18 4 -42 4q-38 0 -59 -15t-21 -54v-47h116v-98h-116v-433h-123v433h-187v-433h-123z" />
    <glyph glyph-name="lessequal" unicode="&#x2264;" horiz-adv-x="760" 
d="M161 151l-22 -2v94l29 -2l6 83l-164 -20v130l164 -20l-7 85l-28 -2v94l21 -2l-1 21h94l-2 -28l84 -6l-20 164h130l-20 -164l84 6l-2 28h94l-2 -21l22 2v-94l-29 2l-6 -85l164 20v-130l-164 20l6 -83l29 2v-94l-22 2l2 -23h-94l2 30l-84 6l20 -164h-130l20 164l-84 -6
l2 -30h-94zM425 511v-97h96l-7 91zM335 414v97l-90 -6l-6 -91h96zM425 324v-95l90 6l6 89h-96zM245 235l90 -6v95h-96z" />
    <glyph glyph-name="greaterequal" unicode="&#x2265;" horiz-adv-x="760" 
d="M161 151l-22 -2v94l29 -2l6 83l-164 -20v130l164 -20l-7 85l-28 -2v94l21 -2l-1 21h94l-2 -28l84 -6l-20 164h130l-20 -164l84 6l-2 28h94l-2 -21l22 2v-94l-29 2l-6 -85l164 20v-130l-164 20l6 -83l29 2v-94l-22 2l2 -23h-94l2 30l-84 6l20 -164h-130l20 164l-84 -6
l2 -30h-94zM425 511v-97h96l-7 91zM335 414v97l-90 -6l-6 -91h96zM425 324v-95l90 6l6 89h-96zM245 235l90 -6v95h-96z" />
    <glyph glyph-name="lozenge" unicode="&#x25ca;" horiz-adv-x="760" 
d="M161 151l-22 -2v94l29 -2l6 83l-164 -20v130l164 -20l-7 85l-28 -2v94l21 -2l-1 21h94l-2 -28l84 -6l-20 164h130l-20 -164l84 6l-2 28h94l-2 -21l22 2v-94l-29 2l-6 -85l164 20v-130l-164 20l6 -83l29 2v-94l-22 2l2 -23h-94l2 30l-84 6l20 -164h-130l20 164l-84 -6
l2 -30h-94zM425 511v-97h96l-7 91zM335 414v97l-90 -6l-6 -91h96zM425 324v-95l90 6l6 89h-96zM245 235l90 -6v95h-96z" />
    <glyph glyph-name="apple" unicode="&#xf8ff;" horiz-adv-x="760" 
d="M161 151l-22 -2v94l29 -2l6 83l-164 -20v130l164 -20l-7 85l-28 -2v94l21 -2l-1 21h94l-2 -28l84 -6l-20 164h130l-20 -164l84 6l-2 28h94l-2 -21l22 2v-94l-29 2l-6 -85l164 20v-130l-164 20l6 -83l29 2v-94l-22 2l2 -23h-94l2 30l-84 6l20 -164h-130l20 164l-84 -6
l2 -30h-94zM425 511v-97h96l-7 91zM335 414v97l-90 -6l-6 -91h96zM425 324v-95l90 6l6 89h-96zM245 235l90 -6v95h-96z" />
    <glyph glyph-name="fi" unicode="&#xfb01;" horiz-adv-x="627" 
d="M424 618v112h125v-112h-125zM115 0v433h-92v98h92v54q0 72 37.5 115t121.5 43q24 0 69 -5v-95q-14 3 -37 3q-68 0 -68 -69v-46h104v-98h-104v-433h-123zM425 0v531h123v-531h-123z" />
    <glyph glyph-name="fl" unicode="&#xfb02;" horiz-adv-x="624" 
d="M115 0v433h-92v98h92v54q0 72 37.5 115t121.5 43q24 0 69 -5v-95q-14 3 -37 3q-68 0 -68 -69v-46h104v-98h-104v-433h-123zM425 0v740h123v-740h-123z" />
    <glyph glyph-name="NUL" horiz-adv-x="0" 
 />
  </font>
</defs>
</svg>
